# xmcd CD database file
#
# Track frame offsets:
#	150
#	16923
#	38850
#	51080
#	70828
#	85593
#	108470
#	122315
#	132818
#	150843
#	163723
#	177038
#	212768
#	225175
#	237240
#	250598
#	262608
#	277528
#	288850
#	302533
#	314020
#
# Disc length: 4362 seconds
#
# Revision: 4
# Processed by: cddbd v1.5.2PL0 Copyright (c) Steve Scherf et al.
# Submitted via: CDex 1.51
#
DISCID=f5110815
DTITLE=Chet Baker - Vol. 100 - Let's Get Lost
DYEAR=1990
DGENRE=Jazz
TTITLE0=Let's Get Lost
TTITLE1=You Don't Know What Love Is
TTITLE2=Just Friends
TTITLE3=My Ideal
TTITLE4=I Remember You
TTITLE5=Everything Happens To Me
TTITLE6=But Not For Me
TTITLE7=My Funny Valentine
TTITLE8=Long Ago And Far Away
TTITLE9=The Thrill Is Gone
TTITLE10=There Will Never Be Another You
TTITLE11=Polka Dots And Moonbeams
TTITLE12=Time After Time
TTITLE13=Daybreak
TTITLE14=I Get Along Without You Very Well
TTITLE15=Look For The Silver Lining
TTITLE16=I Fall In Love Too Easily
TTITLE17=Line For Lyons
TTITLE18=That Old Feeling
TTITLE19=Love
TTITLE20=Cherry
EXTD=YEAR: 1990
EXTT0=
EXTT1=
EXTT2=
EXTT3=
EXTT4=
EXTT5=
EXTT6=
EXTT7=
EXTT8=
EXTT9=
EXTT10=
EXTT11=
EXTT12=
EXTT13=
EXTT14=
EXTT15=
EXTT16=
EXTT17=
EXTT18=
EXTT19=
EXTT20=
PLAYORDER=
